<?xml version="1.0" encoding="utf-8" ?>
<svg baseProfile="tiny" height="100%" version="1.2" width="100%" xmlns="http://www.w3.org/2000/svg" xmlns:ev="http://www.w3.org/2001/xml-events" xmlns:xlink="http://www.w3.org/1999/xlink"><defs /><polygon fill="black" points="1363,1224 1362,1225 1361,1225 1361,1379 1362,1380 1447,1380 1448,1379 1448,1345 1447,1345 1446,1344 1401,1344 1400,1343 1400,1320 1401,1319 1402,1319 1403,1318 1446,1318 1446,1317 1447,1316 1447,1285 1446,1284 1445,1284 1444,1283 1402,1283 1400,1281 1400,1261 1402,1259 1447,1259 1448,1258 1448,1225 1447,1225 1446,1224" /><polygon fill="black" points="1224,1224 1223,1225 1222,1225 1222,1379 1223,1380 1261,1380 1262,1379 1262,1226 1260,1224" /><polygon fill="black" points="991,1224 989,1226 989,1230 990,1231 990,1233 991,1234 991,1237 992,1238 992,1240 993,1241 993,1243 994,1244 994,1246 995,1247 995,1248 996,1249 996,1251 997,1252 997,1254 998,1255 998,1257 999,1258 999,1261 1000,1262 1000,1264 1001,1265 1001,1266 1002,1267 1002,1269 1003,1270 1003,1272 1004,1273 1004,1275 1005,1276 1005,1277 1006,1278 1006,1280 1007,1281 1007,1285 1008,1286 1008,1288 1009,1289 1009,1291 1010,1292 1010,1293 1011,1294 1011,1296 1012,1297 1012,1299 1013,1300 1013,1301 1014,1302 1014,1304 1015,1305 1015,1307 1016,1308 1016,1312 1017,1313 1017,1315 1018,1316 1018,1317 1019,1318 1019,1320 1020,1321 1020,1323 1021,1324 1021,1325 1022,1326 1022,1328 1023,1329 1023,1331 1024,1332 1024,1336 1025,1337 1025,1339 1026,1340 1026,1341 1027,1342 1027,1344 1028,1345 1028,1347 1029,1348 1029,1350 1030,1351 1030,1352 1031,1353 1031,1355 1032,1356 1032,1359 1033,1360 1033,1363 1034,1364 1034,1366 1035,1367 1035,1368 1036,1369 1036,1371 1037,1372 1037,1374 1038,1375 1038,1376 1039,1377 1039,1379 1040,1380 1081,1380 1082,1379 1082,1376 1083,1375 1083,1374 1084,1373 1084,1371 1085,1370 1085,1368 1086,1367 1086,1366 1087,1365 1087,1363 1088,1362 1088,1360 1089,1359 1089,1357 1090,1356 1090,1352 1091,1351 1091,1350 1092,1349 1092,1347 1093,1346 1093,1344 1094,1343 1094,1342 1095,1341 1095,1339 1096,1338 1096,1336 1097,1335 1097,1333 1098,1332 1098,1328 1099,1327 1099,1326 1100,1325 1100,1324 1101,1323 1101,1321 1102,1320 1102,1318 1103,1317 1103,1315 1104,1314 1104,1313 1105,1312 1105,1310 1106,1309 1106,1307 1107,1306 1107,1302 1108,1301 1108,1300 1109,1299 1109,1297 1110,1296 1110,1294 1111,1293 1111,1291 1112,1290 1112,1289 1113,1288 1113,1286 1114,1285 1114,1283 1115,1282 1115,1278 1116,1277 1116,1275 1117,1274 1117,1273 1118,1272 1118,1270 1119,1269 1119,1267 1120,1266 1120,1265 1121,1264 1121,1262 1122,1261 1122,1259 1123,1258 1123,1255 1124,1254 1124,1251 1125,1250 1125,1249 1126,1248 1126,1246 1127,1245 1127,1243 1128,1242 1128,1241 1129,1240 1129,1238 1130,1237 1130,1235 1131,1234 1131,1232 1132,1231 1132,1225 1131,1224 1092,1224 1091,1225 1091,1228 1090,1229 1090,1232 1089,1233 1089,1234 1088,1235 1088,1238 1087,1239 1087,1241 1086,1242 1086,1244 1085,1245 1085,1247 1084,1248 1084,1250 1083,1251 1083,1256 1082,1257 1082,1259 1081,1260 1081,1262 1080,1263 1080,1266 1079,1267 1079,1268 1078,1269 1078,1272 1077,1273 1077,1275 1076,1276 1076,1278 1075,1279 1075,1283 1074,1284 1074,1287 1073,1288 1073,1290 1072,1291 1072,1293 1071,1294 1071,1296 1070,1297 1070,1300 1069,1301 1069,1303 1068,1304 1068,1306 1067,1307 1067,1309 1066,1310 1066,1315 1065,1316 1065,1318 1064,1319 1064,1321 1063,1322 1063,1324 1062,1325 1062,1327 1061,1328 1061,1329 1060,1330 1059,1329 1059,1327 1058,1326 1058,1324 1057,1323 1057,1321 1056,1320 1056,1315 1055,1314 1055,1311 1054,1310 1054,1309 1053,1308 1053,1305 1052,1304 1052,1302 1051,1301 1051,1299 1050,1298 1050,1296 1049,1295 1049,1293 1048,1292 1048,1287 1047,1286 1047,1284 1046,1283 1046,1280 1045,1279 1045,1277 1044,1276 1044,1274 1043,1273 1043,1271 1042,1270 1042,1268 1041,1267 1041,1265 1040,1264 1040,1260 1039,1259 1039,1256 1038,1255 1038,1252 1037,1251 1037,1250 1036,1249 1036,1246 1035,1245 1035,1243 1034,1242 1034,1240 1033,1239 1033,1237 1032,1236 1032,1234 1031,1233 1031,1228 1030,1227 1030,1225 1029,1225 1028,1224" /><polygon fill="black" points="840,1224 838,1226 838,1228 837,1229 837,1230 836,1231 836,1233 834,1235 834,1237 833,1238 833,1239 832,1240 832,1242 831,1243 831,1246 830,1247 830,1248 829,1249 829,1250 828,1251 828,1252 827,1253 827,1254 826,1255 826,1257 825,1258 825,1259 824,1260 824,1261 823,1262 823,1266 822,1267 822,1268 821,1269 821,1270 820,1271 820,1272 819,1273 819,1275 818,1276 818,1277 817,1278 817,1279 816,1280 816,1281 815,1282 815,1284 814,1285 814,1288 813,1289 813,1290 812,1291 812,1292 811,1293 811,1294 810,1295 810,1297 809,1298 809,1299 808,1300 808,1301 807,1302 807,1304 806,1305 806,1308 805,1309 805,1310 804,1311 804,1312 803,1313 803,1315 802,1316 802,1317 801,1318 801,1319 800,1320 800,1321 799,1322 799,1324 798,1325 798,1327 797,1328 797,1330 796,1331 796,1333 794,1335 794,1337 793,1338 793,1339 792,1340 792,1342 791,1343 791,1344 790,1345 790,1346 789,1347 789,1351 787,1353 787,1355 786,1356 786,1357 785,1358 785,1359 784,1360 784,1361 783,1362 783,1364 782,1365 782,1366 781,1367 781,1370 780,1371 780,1373 779,1374 779,1375 778,1376 778,1378 779,1379 779,1380 820,1380 821,1379 821,1376 822,1375 822,1374 823,1373 823,1371 824,1370 824,1369 825,1368 825,1367 826,1366 826,1364 827,1363 827,1361 828,1360 828,1359 829,1358 881,1358 882,1359 882,1361 883,1362 883,1364 884,1365 884,1366 885,1367 885,1369 886,1370 886,1372 887,1373 887,1375 888,1376 888,1377 889,1378 889,1379 890,1380 930,1380 931,1379 931,1373 930,1372 930,1370 929,1369 929,1368 928,1367 928,1365 927,1364 927,1363 926,1362 926,1361 925,1360 925,1359 924,1358 924,1356 923,1355 923,1354 922,1353 922,1350 921,1349 921,1347 920,1346 920,1345 919,1344 919,1343 918,1342 918,1341 917,1340 917,1338 916,1337 916,1336 915,1335 915,1334 914,1333 914,1330 913,1329 913,1327 912,1326 912,1325 911,1324 911,1323 910,1322 910,1320 909,1319 909,1318 908,1317 908,1316 907,1315 907,1313 906,1312 906,1311 905,1310 905,1307 904,1306 904,1305 903,1304 903,1302 902,1301 902,1300 901,1299 901,1298 900,1297 900,1295 899,1294 899,1293 898,1292 898,1291 897,1290 897,1287 896,1286 896,1285 895,1284 895,1282 894,1281 894,1280 893,1279 893,1277 891,1275 891,1273 890,1272 890,1271 889,1270 889,1267 888,1266 888,1264 887,1263 887,1262 886,1261 886,1260 885,1259 885,1258 884,1257 884,1255 883,1254 883,1253 882,1252 882,1251 881,1250 881,1248 880,1247 880,1244 879,1243 879,1242 878,1241 878,1239 877,1238 877,1237 876,1236 876,1235 875,1234 875,1233 874,1232 874,1230 873,1229 873,1228 872,1227 872,1225 871,1224" /><polygon fill="black" points="648,1221 647,1222 643,1222 642,1223 639,1223 638,1224 637,1224 636,1225 634,1225 633,1226 630,1226 629,1227 628,1227 627,1228 626,1228 624,1230 623,1230 619,1234 617,1234 613,1238 613,1239 608,1244 608,1245 607,1246 607,1247 606,1248 606,1249 605,1250 605,1252 604,1253 604,1256 603,1257 603,1260 602,1261 602,1274 603,1275 603,1279 604,1280 604,1283 605,1284 605,1285 606,1286 606,1288 611,1293 611,1294 617,1300 618,1300 619,1301 620,1301 624,1305 625,1305 626,1306 627,1306 628,1307 629,1307 630,1308 632,1308 633,1309 634,1309 635,1310 636,1310 637,1311 638,1311 639,1312 640,1312 641,1313 643,1313 644,1314 645,1314 646,1315 647,1315 648,1316 650,1316 651,1317 654,1317 656,1319 657,1319 659,1321 660,1321 662,1323 663,1323 668,1328 668,1329 669,1330 669,1331 670,1332 670,1339 669,1340 669,1341 662,1348 661,1348 660,1349 652,1349 651,1348 650,1348 649,1347 648,1347 643,1342 643,1341 642,1340 642,1339 641,1338 641,1336 640,1335 640,1330 638,1328 599,1328 599,1339 600,1340 600,1345 601,1346 601,1349 602,1350 602,1351 603,1352 603,1354 604,1355 604,1357 605,1358 605,1359 606,1360 606,1361 608,1363 608,1364 611,1367 612,1367 613,1368 613,1369 617,1373 618,1373 620,1375 622,1375 624,1377 626,1377 627,1378 628,1378 629,1379 630,1379 631,1380 633,1380 634,1381 637,1381 638,1382 641,1382 642,1383 649,1383 650,1384 661,1384 662,1383 669,1383 670,1382 674,1382 675,1381 678,1381 679,1380 680,1380 681,1379 683,1379 684,1378 685,1378 686,1377 687,1377 689,1375 691,1375 692,1374 693,1374 703,1364 703,1363 704,1362 704,1360 706,1358 706,1357 707,1356 707,1354 708,1353 708,1351 709,1350 709,1348 710,1347 710,1341 711,1340 711,1330 710,1329 710,1324 709,1323 709,1320 708,1319 708,1318 707,1317 707,1316 705,1314 705,1313 704,1312 704,1311 694,1301 693,1301 692,1300 691,1300 689,1298 688,1298 685,1295 684,1295 683,1294 682,1294 681,1293 679,1293 678,1292 677,1292 676,1291 675,1291 674,1290 673,1290 672,1289 671,1289 670,1288 669,1288 668,1287 667,1287 666,1286 665,1286 664,1285 662,1285 661,1284 659,1284 658,1283 657,1283 656,1282 655,1282 653,1280 652,1280 649,1277 648,1277 647,1276 646,1276 645,1275 645,1274 644,1273 644,1272 643,1271 643,1269 642,1268 642,1266 643,1265 643,1263 644,1262 644,1261 645,1260 645,1259 646,1258 648,1258 649,1257 650,1257 651,1256 653,1256 654,1255 657,1255 658,1256 661,1256 662,1257 663,1257 664,1258 664,1259 666,1261 666,1262 667,1263 667,1264 668,1265 668,1266 669,1267 669,1269 670,1270 708,1270 709,1269 709,1260 708,1259 708,1255 707,1254 707,1252 706,1251 706,1250 705,1249 705,1248 704,1247 704,1245 703,1244 703,1243 700,1240 700,1239 695,1234 694,1234 691,1231 690,1231 688,1229 687,1229 685,1227 684,1227 683,1226 680,1226 679,1225 678,1225 677,1224 674,1224 673,1223 671,1223 670,1222 665,1222 664,1221" /><polygon fill="black" points="1021,599 1020,600 1016,600 1015,601 1014,601 1013,602 1012,602 1010,604 1008,604 1007,605 1006,605 1004,607 1003,607 1002,608 1001,608 1000,609 999,609 999,610 998,611 997,611 996,612 995,612 994,613 992,613 990,615 989,615 987,617 986,617 985,618 984,618 981,621 978,621 977,622 976,622 973,625 972,625 971,626 970,626 968,628 967,628 965,630 963,630 962,631 961,631 960,632 959,632 956,635 955,635 954,636 953,636 951,638 949,638 948,639 947,639 945,641 944,641 943,642 942,642 939,645 938,645 937,646 935,646 934,647 933,647 931,649 930,649 928,651 927,651 926,652 925,652 922,655 919,655 917,657 916,657 914,659 913,659 911,661 910,661 909,662 908,662 907,663 906,663 905,664 904,664 903,665 902,665 900,667 899,667 897,669 896,669 894,671 893,671 892,672 890,672 884,678 884,679 882,681 882,682 881,683 881,688 880,689 880,836 881,837 881,841 882,842 882,843 883,844 883,845 885,847 886,847 888,849 889,849 891,851 893,851 894,852 905,852 907,850 908,850 909,849 910,849 912,847 913,847 914,846 914,845 915,844 915,843 916,842 916,841 917,840 917,839 918,838 918,702 921,699 922,699 924,697 925,697 926,696 927,696 928,695 929,695 930,694 931,694 933,692 934,692 935,691 936,691 938,689 939,689 941,687 943,687 944,686 945,686 946,685 947,685 950,682 951,682 952,681 953,681 954,680 955,680 956,679 957,679 958,678 959,678 961,676 962,676 963,675 964,675 967,672 968,672 969,671 970,671 971,670 972,670 973,669 974,669 975,668 976,668 977,667 978,667 980,665 981,665 984,662 986,662 987,661 988,661 990,659 991,659 992,658 993,658 994,657 995,657 997,655 998,655 999,654 1000,654 1001,653 1002,653 1003,652 1004,652 1007,649 1008,649 1009,648 1010,648 1011,647 1012,647 1014,645 1016,645 1017,644 1018,644 1020,642 1021,642 1023,640 1024,640 1025,641 1026,641 1028,643 1029,643 1030,644 1031,644 1032,645 1033,645 1034,646 1035,646 1036,647 1037,647 1039,649 1040,649 1042,651 1043,651 1045,653 1046,653 1047,654 1049,654 1051,656 1052,656 1053,657 1054,657 1056,659 1057,659 1059,661 1060,661 1061,662 1063,662 1064,663 1065,663 1068,666 1069,666 1070,667 1071,667 1073,669 1074,669 1075,670 1077,670 1079,672 1080,672 1081,673 1082,673 1085,676 1086,676 1087,677 1088,677 1089,678 1090,678 1091,679 1092,679 1093,680 1094,680 1096,682 1097,682 1098,683 1099,683 1102,686 1103,686 1104,687 1107,687 1108,688 1108,689 1109,689 1110,690 1111,690 1112,691 1113,691 1115,693 1116,693 1118,695 1119,695 1120,696 1122,696 1123,697 1124,697 1125,698 1125,699 1126,699 1127,700 1128,700 1130,702 1130,822 1129,823 1127,823 1124,826 1123,826 1122,827 1121,827 1120,828 1119,828 1117,830 1116,830 1115,831 1114,831 1113,832 1112,832 1111,833 1110,833 1107,836 1106,836 1105,837 1104,837 1103,838 1102,838 1101,839 1100,839 1099,840 1098,840 1097,841 1096,841 1094,843 1093,843 1091,845 1090,845 1088,847 1087,847 1086,848 1084,848 1082,850 1081,850 1080,851 1079,851 1077,853 1076,853 1074,855 1073,855 1072,856 1070,856 1069,857 1068,857 1065,860 1064,860 1063,861 1062,861 1060,863 1059,863 1057,865 1055,865 1054,866 1053,866 1052,867 1051,867 1048,870 1047,870 1046,871 1045,871 1043,873 1041,873 1040,874 1039,874 1037,876 1036,876 1035,877 1034,877 1031,880 1030,880 1029,881 1027,881 1026,882 1025,882 1023,884 1022,884 1020,886 1019,886 1018,887 1017,887 1014,890 1012,890 1011,891 1010,891 1010,892 1007,895 1007,897 1006,898 1006,900 1005,901 1005,910 1006,911 1006,913 1007,914 1007,916 1008,917 1008,918 1011,921 1012,921 1013,922 1015,922 1017,924 1030,924 1031,923 1032,923 1033,922 1035,922 1036,921 1037,921 1038,920 1039,920 1042,917 1043,917 1044,916 1045,916 1047,914 1049,914 1050,913 1051,913 1053,911 1054,911 1055,910 1056,910 1056,909 1057,908 1058,908 1059,907 1060,907 1061,906 1062,906 1063,905 1064,905 1065,904 1066,904 1067,903 1068,903 1070,901 1071,901 1072,900 1073,900 1076,897 1078,897 1079,896 1080,896 1082,894 1083,894 1084,893 1085,893 1087,891 1088,891 1089,890 1090,890 1091,889 1092,889 1093,888 1094,888 1095,887 1096,887 1099,884 1100,884 1101,883 1102,883 1104,881 1105,881 1106,880 1108,880 1110,878 1111,878 1112,877 1113,877 1114,876 1115,876 1115,875 1116,874 1117,874 1118,873 1119,873 1120,872 1122,872 1124,870 1125,870 1127,868 1128,868 1129,867 1130,867 1131,866 1132,866 1132,865 1133,864 1134,864 1135,863 1137,863 1138,862 1139,862 1141,860 1142,860 1144,858 1145,858 1146,857 1147,857 1149,855 1151,855 1152,854 1153,854 1154,853 1155,853 1160,848 1161,848 1164,845 1164,844 1165,843 1165,842 1166,841 1166,838 1167,837 1167,687 1166,686 1166,682 1165,681 1165,680 1161,676 1161,675 1160,675 1157,672 1156,672 1155,671 1154,671 1153,670 1152,670 1151,669 1150,669 1147,666 1146,666 1144,664 1143,664 1142,663 1140,663 1138,661 1137,661 1136,660 1135,660 1134,659 1133,659 1130,656 1129,656 1128,655 1126,655 1124,653 1123,653 1121,651 1120,651 1119,650 1118,650 1117,649 1116,649 1114,647 1113,647 1112,646 1110,646 1107,643 1106,643 1105,642 1104,642 1102,640 1101,640 1100,639 1099,639 1098,638 1097,638 1096,637 1095,637 1094,636 1093,636 1090,633 1089,633 1088,632 1087,632 1085,630 1083,630 1081,628 1080,628 1079,627 1078,627 1077,626 1076,626 1073,623 1072,623 1071,622 1070,622 1069,621 1067,621 1065,619 1064,619 1062,617 1061,617 1060,616 1059,616 1057,614 1056,614 1055,613 1053,613 1051,611 1050,611 1048,609 1047,609 1045,607 1044,607 1043,606 1042,606 1041,605 1040,605 1039,604 1038,604 1037,603 1036,603 1035,602 1034,602 1033,601 1032,601 1031,600 1028,600 1027,599" /><polygon fill="black" points="1016,487 1015,488 1012,488 1011,489 1010,489 1009,490 1008,490 1006,492 1005,492 1003,494 1002,494 1001,495 1000,495 999,496 998,496 997,497 996,497 995,498 994,498 992,500 991,500 989,502 988,502 986,504 984,504 983,505 982,505 980,507 979,507 978,508 977,508 975,510 974,510 972,512 970,512 969,513 968,513 966,515 965,515 963,517 962,517 961,518 960,518 958,520 957,520 956,521 955,521 954,522 953,522 952,523 951,523 950,524 949,524 946,527 945,527 944,528 943,528 942,529 941,529 940,530 939,530 938,531 937,531 935,533 934,533 933,534 932,534 929,537 927,537 926,538 925,538 923,540 922,540 921,541 920,541 919,542 918,542 916,544 915,544 913,546 911,546 910,547 909,547 906,550 905,550 904,551 903,551 902,552 901,552 899,554 897,554 896,555 895,555 893,557 892,557 889,560 888,560 887,561 886,561 885,562 884,562 883,563 882,563 881,564 880,564 879,565 878,565 876,567 875,567 872,570 871,570 870,571 868,571 867,572 866,572 864,574 863,574 862,575 861,575 859,577 858,577 856,579 854,579 853,580 852,580 850,582 849,582 847,584 846,584 845,585 844,585 842,587 841,587 840,588 839,588 838,589 837,589 836,590 835,590 834,591 833,591 830,594 829,594 828,595 827,595 826,596 825,596 824,597 823,597 822,598 821,598 819,600 818,600 817,601 816,601 813,604 811,604 810,605 809,605 808,606 807,606 805,608 804,608 802,610 801,610 800,611 799,611 797,613 795,613 792,616 791,616 791,617 789,619 789,620 785,624 785,625 784,626 784,628 783,629 783,630 782,631 782,634 781,635 781,894 782,895 782,896 783,897 783,899 785,901 785,902 787,904 788,904 790,906 791,906 792,907 794,907 795,908 806,908 807,907 809,907 811,905 812,905 817,900 817,899 818,898 818,897 819,896 819,893 820,892 820,644 821,643 822,643 824,641 825,641 826,640 827,640 829,638 830,638 831,637 832,637 833,636 834,636 835,635 836,635 838,633 839,633 841,631 842,631 843,630 844,630 845,629 846,629 847,628 848,628 849,627 850,627 852,625 853,625 855,623 856,623 858,621 859,621 860,620 862,620 864,618 865,618 866,617 867,617 868,616 869,616 871,614 872,614 874,612 875,612 876,611 877,611 878,610 879,610 881,608 882,608 883,607 884,607 885,606 886,606 889,603 891,603 892,602 893,602 894,601 895,601 898,598 899,598 900,597 901,597 902,596 903,596 904,595 905,595 906,594 907,594 908,593 909,593 911,591 912,591 915,588 916,588 917,587 918,587 919,586 921,586 923,584 924,584 925,583 926,583 928,581 929,581 931,579 932,579 933,578 935,578 937,576 938,576 940,574 941,574 942,573 943,573 945,571 946,571 947,570 948,570 949,569 950,569 951,568 952,568 953,567 954,567 957,564 958,564 959,563 960,563 962,561 964,561 965,560 966,560 968,558 969,558 970,557 971,557 974,554 975,554 976,553 978,553 979,552 980,552 982,550 983,550 985,548 986,548 987,547 988,547 991,544 994,544 996,542 997,542 999,540 1000,540 1002,538 1003,538 1004,537 1005,537 1006,536 1007,536 1008,535 1009,535 1010,534 1011,534 1013,532 1014,532 1016,530 1017,530 1018,529 1019,529 1020,528 1021,528 1022,527 1023,527 1024,526 1025,527 1026,527 1027,528 1028,528 1029,529 1030,529 1033,532 1034,532 1035,533 1036,533 1038,535 1039,535 1040,536 1042,536 1044,538 1045,538 1046,539 1047,539 1050,542 1051,542 1052,543 1053,543 1054,544 1056,544 1058,546 1059,546 1061,548 1062,548 1063,549 1064,549 1066,551 1067,551 1068,552 1069,552 1070,553 1071,553 1072,554 1073,554 1075,556 1076,556 1078,558 1079,558 1080,559 1081,559 1082,560 1083,560 1084,561 1085,561 1086,562 1087,562 1088,563 1089,563 1092,566 1093,566 1095,568 1096,568 1097,569 1098,569 1099,570 1100,570 1101,571 1102,571 1103,572 1104,572 1105,573 1106,573 1109,576 1110,576 1111,577 1112,577 1113,578 1115,578 1118,581 1119,581 1120,582 1121,582 1122,583 1123,583 1125,585 1126,585 1127,586 1129,586 1131,588 1132,588 1134,590 1135,590 1137,592 1138,592 1139,593 1140,593 1141,594 1142,594 1143,595 1144,595 1145,596 1146,596 1148,598 1149,598 1151,600 1152,600 1153,601 1154,601 1156,603 1158,603 1160,605 1161,605 1162,606 1163,606 1165,608 1166,608 1168,610 1169,610 1170,611 1171,611 1172,612 1174,612 1177,615 1178,615 1179,616 1180,616 1182,618 1183,618 1184,619 1185,619 1186,620 1187,620 1188,621 1189,621 1190,622 1191,622 1194,625 1195,625 1196,626 1197,626 1198,627 1199,627 1200,628 1201,628 1202,629 1203,629 1205,631 1206,631 1207,632 1208,632 1210,634 1211,634 1213,636 1214,636 1215,637 1217,637 1219,639 1220,639 1222,641 1223,641 1224,642 1225,642 1228,645 1228,879 1226,881 1225,881 1224,882 1223,882 1222,883 1221,883 1220,884 1219,884 1217,886 1216,886 1214,888 1213,888 1212,889 1211,889 1210,890 1209,890 1208,891 1207,891 1206,892 1205,892 1203,894 1202,894 1200,896 1199,896 1197,898 1195,898 1194,899 1193,899 1191,901 1190,901 1189,902 1188,902 1187,903 1186,903 1183,906 1182,906 1181,907 1179,907 1178,908 1177,908 1174,911 1173,911 1172,912 1171,912 1170,913 1169,913 1167,915 1165,915 1163,917 1162,917 1161,918 1160,918 1157,921 1156,921 1155,922 1154,922 1153,923 1152,923 1151,924 1150,924 1149,925 1148,925 1147,926 1146,926 1144,928 1143,928 1140,931 1139,931 1138,932 1136,932 1135,933 1134,933 1132,935 1131,935 1130,936 1129,936 1127,938 1126,938 1124,940 1122,940 1121,941 1120,941 1118,943 1117,943 1115,945 1114,945 1113,946 1112,946 1110,948 1109,948 1108,949 1107,949 1106,950 1105,950 1104,951 1103,951 1102,952 1101,952 1098,955 1097,955 1096,956 1095,956 1094,957 1093,957 1092,958 1091,958 1090,959 1089,959 1087,961 1086,961 1085,962 1084,962 1081,965 1079,965 1078,966 1077,966 1076,967 1075,967 1073,969 1072,969 1070,971 1069,971 1068,972 1067,972 1065,974 1063,974 1062,975 1061,975 1059,977 1058,977 1056,979 1055,979 1053,981 1052,981 1051,982 1050,982 1049,983 1048,983 1047,984 1046,984 1045,985 1044,985 1042,987 1041,987 1039,989 1038,989 1037,990 1036,990 1035,991 1034,991 1033,992 1032,992 1030,994 1029,994 1028,995 1027,995 1026,996 1025,996 1022,999 1020,999 1019,1000 1018,1000 1017,1001 1016,1001 1013,1004 1012,1004 1007,1009 1007,1011 1006,1012 1006,1014 1005,1015 1005,1024 1006,1025 1006,1027 1007,1028 1007,1029 1008,1030 1008,1031 1013,1036 1014,1036 1015,1037 1016,1037 1017,1038 1019,1038 1020,1039 1027,1039 1028,1038 1031,1038 1033,1036 1034,1036 1035,1035 1036,1035 1037,1034 1038,1034 1041,1031 1043,1031 1044,1030 1045,1030 1046,1029 1047,1029 1049,1027 1050,1027 1052,1025 1053,1025 1054,1024 1055,1024 1056,1023 1057,1023 1058,1022 1059,1022 1060,1021 1061,1021 1063,1019 1064,1019 1066,1017 1067,1017 1069,1015 1070,1015 1071,1014 1072,1014 1073,1013 1074,1013 1075,1012 1076,1012 1077,1011 1078,1011 1080,1009 1081,1009 1083,1007 1084,1007 1085,1006 1087,1006 1089,1004 1090,1004 1092,1002 1093,1002 1094,1001 1095,1001 1097,999 1098,999 1099,998 1100,998 1101,997 1102,997 1103,996 1104,996 1105,995 1106,995 1109,992 1110,992 1111,991 1112,991 1113,990 1114,990 1115,989 1116,989 1117,988 1118,988 1120,986 1121,986 1122,985 1123,985 1126,982 1127,982 1128,981 1130,981 1132,979 1133,979 1134,978 1135,978 1136,977 1137,977 1139,975 1140,975 1142,973 1143,973 1144,972 1145,972 1146,971 1147,971 1149,969 1150,969 1151,968 1152,968 1153,967 1154,967 1156,965 1157,965 1158,964 1159,964 1160,963 1161,963 1162,962 1163,962 1166,959 1167,959 1168,958 1169,958 1170,957 1171,957 1172,956 1173,956 1174,955 1175,955 1176,954 1177,954 1179,952 1180,952 1183,949 1184,949 1185,948 1186,948 1187,947 1189,947 1191,945 1192,945 1193,944 1194,944 1196,942 1197,942 1198,941 1199,941 1201,939 1203,939 1205,937 1206,937 1208,935 1209,935 1210,934 1211,934 1213,932 1214,932 1215,931 1216,931 1217,930 1218,930 1219,929 1220,929 1221,928 1222,928 1225,925 1226,925 1227,924 1228,924 1230,922 1232,922 1233,921 1234,921 1236,919 1237,919 1238,918 1239,918 1242,915 1243,915 1244,914 1246,914 1247,913 1248,913 1250,911 1251,911 1253,909 1254,909 1259,904 1259,903 1261,901 1261,900 1263,898 1263,897 1264,896 1264,895 1265,894 1265,891 1266,890 1266,633 1265,632 1265,630 1264,629 1264,627 1263,626 1263,625 1261,623 1261,622 1258,619 1258,618 1255,615 1254,615 1252,613 1250,613 1247,610 1246,610 1245,609 1244,609 1243,608 1242,608 1239,605 1237,605 1236,604 1235,604 1233,602 1232,602 1230,600 1229,600 1228,599 1227,599 1226,598 1225,598 1223,596 1221,596 1220,595 1219,595 1216,592 1215,592 1213,590 1212,590 1211,589 1210,589 1209,588 1208,588 1207,587 1206,587 1205,586 1204,586 1203,585 1202,585 1200,583 1199,583 1197,581 1196,581 1195,580 1194,580 1193,579 1192,579 1190,577 1189,577 1188,576 1187,576 1186,575 1185,575 1183,573 1182,573 1180,571 1178,571 1177,570 1176,570 1174,568 1173,568 1171,566 1170,566 1169,565 1168,565 1166,563 1164,563 1163,562 1162,562 1160,560 1159,560 1157,558 1156,558 1154,556 1153,556 1152,555 1151,555 1150,554 1149,554 1148,553 1147,553 1146,552 1145,552 1143,550 1142,550 1140,548 1139,548 1138,547 1137,547 1136,546 1134,546 1131,543 1130,543 1129,542 1128,542 1126,540 1125,540 1124,539 1123,539 1122,538 1121,538 1120,537 1119,537 1118,536 1117,536 1115,534 1114,534 1112,532 1111,532 1109,530 1108,530 1107,529 1105,529 1103,527 1102,527 1101,526 1100,526 1098,524 1097,524 1095,522 1094,522 1093,521 1091,521 1089,519 1088,519 1086,517 1085,517 1084,516 1083,516 1081,514 1080,514 1079,513 1078,513 1077,512 1075,512 1072,509 1071,509 1070,508 1069,508 1067,506 1066,506 1065,505 1064,505 1063,504 1062,504 1061,503 1060,503 1059,502 1058,502 1055,499 1054,499 1053,498 1052,498 1050,496 1049,496 1048,495 1047,495 1046,494 1045,494 1044,493 1043,493 1042,492 1041,492 1039,490 1038,490 1037,489 1036,489 1035,488 1033,488 1032,487" /></svg>